<svg height='100px' width='100px'  fill="#000000" xmlns:dc="http://purl.org/dc/elements/1.1/" xmlns:cc="http://creativecommons.org/ns#" xmlns:rdf="http://www.w3.org/1999/02/22-rdf-syntax-ns#" xmlns:svg="http://www.w3.org/2000/svg" xmlns="http://www.w3.org/2000/svg" xmlns:sodipodi="http://sodipodi.sourceforge.net/DTD/sodipodi-0.dtd" xmlns:inkscape="http://www.inkscape.org/namespaces/inkscape" version="1.1" x="0px" y="0px" viewBox="0 0 100 100"><g transform="translate(0,-952.36218)"><path style="color:#000000;enable-background:accumulate;" d="m 36,964.36238 c -14.980724,0 -27.2188218,5.88407 -27.96875,13.28125 0.4191202,4.14188 4.807792,7.01899 7.65625,8.5 5.063069,2.56245 12.30205,4.24995 20.3125,4.24995 2.261583,0 4.459481,-0.1533 6.5625,-0.4062 5.210293,-4.99245 12.154733,-8.20399 19.84375,-8.59375 0.75802,-1.19292 1.42865,-2.46967 1.5625,-3.6875 C 62.4512,966.82917 43.556153,964.32546 36,964.36238 z m 28,20 c -15.463973,0 -28,12.536 -28,28.00002 0,15.464 12.536027,28 28,28 15.46397,0 28,-12.536 28,-28 0,-15.46402 -12.53603,-28.00002 -28,-28.00002 z m -55.96875,1.28125 0,4.09375 c 0.3068702,2.9454 2.909623,5.9727 7.65625,8.375 4.776593,2.41752 11.498145,4.04102 18.96875,4.21872 0.988929,-2.89302 2.406911,-5.59502 4.15625,-8.03122 -0.927194,0.045 -1.862448,0.062 -2.8125,0.062 -8.558094,0 -16.330204,-1.7234 -22.125,-4.6563 -2.261708,-1.1446 -4.2450728,-2.52063 -5.84375,-4.06245 z m 0,11.99995 0,4.09382 c 0.3068702,2.9454 2.909623,5.9727 7.65625,8.375 4.436844,2.2455 10.541381,3.8326 17.375,4.1875 -0.03977,-0.6428 -0.0625,-1.2847 -0.0625,-1.9375 0,-2.0748 0.205028,-4.1019 0.59375,-6.0625 -7.597325,-0.2978 -14.47612,-1.9717 -19.71875,-4.625 -2.261707,-1.1447 -4.2450728,-2.48942 -5.84375,-4.03132 z m 0,12.00002 c 10e-6,1.3566 0,2.7509 0,4.0938 0.3068702,2.9454 2.909623,5.9726 7.65625,8.375 7.027723,3.4395 14.337663,4.2024 20.65625,4.25 -1.2731,-2.5106 -2.229201,-5.2163 -2.78125,-8.0625 -7.58493,-0.3012 -14.452035,-1.9753 -19.6875,-4.625 -2.261707,-1.1447 -4.2450728,-2.4894 -5.84375,-4.0313 z m -0.03125,12 0,4.7188 c 0,7.732 12.540613,14 28,14 4.355242,0 8.451405,-0.5186 12.125,-1.4063 -3.714299,-2.2224 -6.943233,-5.1666 -9.4375,-8.6875 -0.886556,0.042 -1.777129,0.094 -2.6875,0.094 -8.558098,0 -16.330204,-1.7547 -22.125,-4.6875 -2.269247,-1.1485 -4.2736838,-2.4831 -5.875,-4.0313 z" fill="#000000" stroke="none" marker="none" visibility="visible" display="inline" overflow="visible"></path></g></svg>