<?xml version="1.0" encoding="utf-8"?>
<!-- Generator: Adobe Illustrator 25.3.1, SVG Export Plug-In . SVG Version: 6.00 Build 0)  -->
<svg version="1.1" id="Layer_1" xmlns="http://www.w3.org/2000/svg" xmlns:xlink="http://www.w3.org/1999/xlink" x="0px" y="0px"
	 viewBox="0 0 100 100" style="enable-background:new 0 0 100 100;" xml:space="preserve">
<style type="text/css">
	.st0{fill:#DD0000;}
	.st1{fill-rule:evenodd;clip-rule:evenodd;fill:#191919;}
	.st2{fill-rule:evenodd;clip-rule:evenodd;fill:#EEEFFF;}
	.st3{fill-rule:evenodd;clip-rule:evenodd;fill:#DD0000;}
</style>
<rect x="19.4" y="16.3" class="st0" width="59.5" height="69"/>
<g>
	<g>
		<path class="st1" d="M49.9,2.5c26.2,0,47.5,21.3,47.5,47.5S76.2,97.4,49.9,97.4S2.5,76.2,2.5,49.9S23.7,2.5,49.9,2.5z"/>
	</g>
</g>
<path class="st2" d="M52,38.1c0.2,15.9,23.4,15.9,23.5,0c0.1-6.6-11.7-15.9-11.7-26.1C63.8,22.6,51.8,31.5,52,38.1z"/>
<path class="st3" d="M27.1,71.9c0.4,24,35.2,24,35.4,0c0.2-10-17.6-24-17.6-39.3C44.9,48.4,26.8,61.9,27.1,71.9z"/>
<path class="st2" d="M39.1,20.7c0.1,9.9,14.6,9.9,14.6,0c0.1-4.1-7.3-9.9-7.3-16.3C46.5,11,39,16.6,39.1,20.7z"/>
</svg>
