<svg height='100px' width='100px'  fill="#ffffff" xmlns="http://www.w3.org/2000/svg" xmlns:xlink="http://www.w3.org/1999/xlink" version="1.1" x="0px" y="0px" viewBox="0 0 100 100" enable-background="new 0 0 100 100" xml:space="preserve"><path d="M38.103,98.905c-0.004,0-0.007,0-0.012,0c-0.771-0.006-1.409-0.603-1.467-1.371L33.13,51.147l-2.246,8.299  c-0.187,0.689-0.841,1.151-1.546,1.092c-0.711-0.057-1.281-0.61-1.359-1.318l-1.71-15.721l-4.284,26.113  c-0.125,0.763-0.812,1.3-1.584,1.237c-0.77-0.063-1.362-0.708-1.36-1.48l0.107-54.333c0.109-3.234,1.287-6.223,3.406-8.689  c2.993-3.485,6.525-5.252,10.501-5.252c7.659,0,14.661,6.645,17.237,9.402c2.944-2.576,11.039-8.971,18.874-8.971  c4.019,0,7.381,1.652,9.991,4.912c2.283,2.847,3.38,6.341,3.354,10.68c0,0.042-0.003,0.083-0.007,0.125l-0.256,2.81  c-0.003,0.038-0.009,0.076-0.015,0.113l-5.929,35.08c-0.117,0.691-0.703,1.206-1.404,1.233c-0.7,0.034-1.325-0.439-1.496-1.12  l-2.621-10.447l-3.928,34.373c-0.085,0.748-0.72,1.313-1.473,1.313h-0.001c-0.754,0-1.387-0.566-1.472-1.315l-3.345-29.436  c-4.275,4.157-8.798,7.575-9.02,7.744c-0.557,0.419-1.331,0.394-1.859-0.061l-6.027-5.194l-4.081,45.221  C39.51,98.32,38.869,98.905,38.103,98.905L38.103,98.905z M33.958,40.926c0.047,0,0.094,0.003,0.141,0.007  c0.719,0.068,1.284,0.645,1.338,1.365l2.798,37.152l2.729-30.254c0.05-0.553,0.405-1.032,0.92-1.241  c0.516-0.209,1.104-0.112,1.524,0.25l7.294,6.285c1.917-1.51,6.386-5.146,9.9-8.913c0.395-0.423,0.998-0.578,1.549-0.396  c0.548,0.181,0.942,0.666,1.008,1.24l2.227,19.598l3.376-29.546c0.081-0.712,0.66-1.264,1.376-1.312  c0.717-0.038,1.36,0.424,1.535,1.119l2.886,11.498l4.741-28.052l0.245-2.689c0.014-3.651-0.847-6.432-2.702-8.746  c-2.05-2.558-4.561-3.801-7.678-3.801c-8.411,0-17.855,9.084-17.95,9.176c-0.297,0.288-0.706,0.435-1.115,0.417  c-0.414-0.022-0.799-0.217-1.063-0.537c-0.078-0.095-7.929-9.487-15.983-9.487c-3.115,0-5.814,1.38-8.252,4.219  c-1.675,1.95-2.606,4.305-2.691,6.811l-0.07,35.865l3.062-18.667c0.12-0.731,0.781-1.265,1.503-1.242  c0.741,0.02,1.354,0.584,1.434,1.321l2.037,18.715l2.451-9.06C32.704,41.37,33.294,40.926,33.958,40.926L33.958,40.926z"></path><path d="M73.646,12.236c-6.957-10.342-23.475,8.637-23.475,8.637S36.379,2.88,29.133,11.129  C16.879,25.081,51.059,48.084,51.059,48.084S81.986,24.638,73.646,12.236z"></path></svg>