<svg height='100px' width='100px'  fill="#ffffff" xmlns="http://www.w3.org/2000/svg" xmlns:xlink="http://www.w3.org/1999/xlink" version="1.1" x="0px" y="0px" viewBox="0 0 64 64" style="enable-background:new 0 0 64 64;" xml:space="preserve"><style type="text/css">
	.st0{fill:none;stroke:#000000;stroke-width:2;stroke-miterlimit:10;}
	.st1{fill:none;stroke:#000000;stroke-width:2;stroke-linecap:round;stroke-miterlimit:10;}
	.st2{fill:#000000;stroke:#000000;stroke-width:2;stroke-miterlimit:10;}
	.st3{fill:none;stroke:#000000;stroke-width:2;stroke-linecap:round;stroke-linejoin:round;stroke-miterlimit:10;}
	.st4{clip-path:url(#SVGID_4_);fill:none;stroke:#000000;stroke-width:2;stroke-miterlimit:10;}
	.st5{clip-path:url(#SVGID_4_);}
	.st6{clip-path:url(#SVGID_8_);}
	.st7{clip-path:url(#SVGID_8_);fill:none;stroke:#000000;stroke-width:2;stroke-miterlimit:10;}
</style><ellipse class="st0" cx="32" cy="46.5" rx="22.5" ry="16.5"></ellipse><g><line class="st1" x1="55" y1="47.1" x2="63" y2="47.1"></line><g><line class="st1" x1="54" y1="42.9" x2="61.5" y2="40.2"></line><line class="st1" x1="54" y1="51.3" x2="61.5" y2="54"></line></g></g><g><line class="st1" x1="9" y1="47" x2="1" y2="47"></line><g><line class="st1" x1="10" y1="51.2" x2="2.5" y2="53.9"></line><line class="st1" x1="10" y1="42.8" x2="2.5" y2="40.1"></line></g></g><path class="st0" d="M18.6,32.9l-7.4-22.2c-0.9-4.3,1.9-8.6,6.2-9.5l0,0C21.8,0.3,26.1,3,27,7.4l2.2,22.4"></path><line class="st0" x1="47" y1="28" x2="45.1" y2="33.9"></line><g><path class="st3" d="M27.8,49.2c0,1.2,0.9,2.1,2.1,2.1c1.2,0,2.1-0.9,2.1-2.1c0,1.2,0.9,2.1,2.1,2.1s2.1-0.9,2.1-2.1"></path><circle cx="19.4" cy="51.4" r="2.1"></circle><circle cx="44.6" cy="51.4" r="2.1"></circle><path d="M22.2,39.5c-2.3,0-4.2,1.9-4.2,4.2c0,2.3,1.9,4.2,4.2,4.2s4.2-1.9,4.2-4.2C26.4,41.4,24.5,39.5,22.2,39.5z M22.9,43.7   c-0.8,0-1.4-0.6-1.4-1.4c0-0.8,0.6-1.4,1.4-1.4s1.4,0.6,1.4,1.4C24.3,43.1,23.7,43.7,22.9,43.7z M25,44.8c-0.4,0-0.7-0.3-0.7-0.7   c0-0.4,0.3-0.7,0.7-0.7c0.4,0,0.7,0.3,0.7,0.7C25.7,44.5,25.4,44.8,25,44.8z"></path><path d="M41.8,39.5c-2.3,0-4.2,1.9-4.2,4.2c0,2.3,1.9,4.2,4.2,4.2S46,46,46,43.7C46,41.4,44.1,39.5,41.8,39.5z M42.5,43.7   c-0.8,0-1.4-0.6-1.4-1.4c0-0.8,0.6-1.4,1.4-1.4s1.4,0.6,1.4,1.4C43.9,43.1,43.3,43.7,42.5,43.7z M44.6,44.8c-0.4,0-0.7-0.3-0.7-0.7   c0-0.4,0.3-0.7,0.7-0.7s0.7,0.3,0.7,0.7C45.3,44.5,45,44.8,44.6,44.8z"></path></g><path d="M31,48.7L30,46.5c-0.4-0.7,0.2-1.5,1-1.5h2.2c0.8,0,1.3,0.8,1,1.5L33,48.7C32.6,49.5,31.4,49.5,31,48.7z"></path><path class="st3" d="M39.9,17.6c0,0,6.1,11.4,10.4,13.1c3,1.2,6.4,0.1,8-2.7l0,0c1.6-3,0.5-6.8-2.5-8.4L41,10.7  c-1.9-1.1-4.3,0.1-4.5,2.3l-1.8,17.1"></path></svg>