<svg height='100px' width='100px'  fill="#ffffff" xmlns="http://www.w3.org/2000/svg" xmlns:xlink="http://www.w3.org/1999/xlink" version="1.1" x="0px" y="0px" viewBox="0 0 100 100" enable-background="new 0 0 100 100" xml:space="preserve"><g><path d="M86.669,1.169L75.677,12.162l-0.188,0.757l0,0l-1.982,8.022l-0.859,3.475l-0.299-0.299l-21.069,21.07   C50.868,45.077,50.445,45,50,45c-2.762,0-5,2.238-5,5s2.238,5,5,5s5-2.238,5-5c0-0.445-0.077-0.869-0.186-1.279l7.398-7.399   l7.144-7.143l0,0l6.527-6.528l-0.298-0.297l12.253-3.031l10.992-10.992l-12.16-0.001L86.669,1.169z"></path><path d="M50,35c1.34,0,2.633,0.193,3.87,0.524l7.689-7.69C58.103,26.027,54.172,25,50,25c-13.809,0-25,11.191-25,25   s11.191,25,25,25s25-11.191,25-25c0-4.172-1.027-8.102-2.834-11.56l-7.69,7.69C64.807,47.368,65,48.66,65,50   c0,8.271-6.729,15-15,15s-15-6.729-15-15C35,41.729,41.729,35,50,35z"></path><path d="M89.039,29.177l-9.354,2.314C83.048,36.865,85,43.207,85,50c0,19.299-15.701,35-35,35S15,69.299,15,50   c0-19.299,15.701-35,35-35c6.794,0,13.137,1.952,18.511,5.315l2.312-9.354l0.187-0.756C64.737,6.887,57.591,5,50,5   C25.145,5,5,25.145,5,50s20.145,45,45,45s45-20.145,45-45c0-7.591-1.887-14.738-5.205-21.01L89.039,29.177z"></path></g></svg>