<svg height='100px' width='100px'  fill="#ffffff" xmlns="http://www.w3.org/2000/svg" data-name="Layer 2" viewBox="0 0 32 32" x="0px" y="0px"><title>ghost, phantom, spooky, haunt, soul, halloween_1</title><path d="M28.481,26.751A11.366,11.366,0,0,1,26,19.678V13A11,11,0,0,0,4,13v7A10.011,10.011,0,0,0,14,30H26.919a2,2,0,0,0,1.562-3.249ZM14,28a8.009,8.009,0,0,1-8-8V13a9,9,0,0,1,18,0v6.678A13.329,13.329,0,0,0,26.927,28Z"></path><circle cx="19" cy="12" r="2"></circle><circle cx="11" cy="12" r="2"></circle><path d="M15,15a2,2,0,0,0-2,2v4a2,2,0,0,0,4,0V17A2,2,0,0,0,15,15Z"></path></svg>