<svg height='100px' width='100px'  fill="#ffffff" xmlns="http://www.w3.org/2000/svg" xmlns:xlink="http://www.w3.org/1999/xlink" version="1.1" x="0px" y="0px" viewBox="0 0 128 128" enable-background="new 0 0 128 128" xml:space="preserve"><g><path d="M34.939,128c-0.312,0-0.628-0.073-0.921-0.225c-0.878-0.456-1.291-1.485-0.971-2.422l20.671-60.564H33   c-0.643,0-1.247-0.309-1.623-0.831c-0.376-0.521-0.478-1.192-0.274-1.802L51.388,1.367C51.66,0.551,52.424,0,53.285,0h37.959   c0.696,0,1.343,0.362,1.706,0.956c0.363,0.594,0.392,1.334,0.075,1.954l-19.7,38.537l21.677,0.023   c0.752,0.001,1.44,0.423,1.781,1.094s0.276,1.475-0.166,2.083l-60.06,82.53C36.17,127.71,35.562,128,34.939,128z M35.776,60.789   h20.739c0.646,0,1.251,0.312,1.626,0.836s0.475,1.199,0.266,1.81L41.105,114.13l49.969-68.664l-21.018-0.022   c-0.696-0.001-1.342-0.363-1.704-0.957c-0.363-0.594-0.392-1.333-0.075-1.953L87.976,4h-33.25L35.776,60.789z"></path></g></svg>