<svg height='100px' width='100px'  fill="#ffffff" xmlns="http://www.w3.org/2000/svg" xmlns:xlink="http://www.w3.org/1999/xlink" version="1.1" x="0px" y="0px" viewBox="0 0 1024 1024" style="enable-background:new 0 0 1024 1024;" xml:space="preserve"><g><path d="M812.2,211.8c-12-11-30.6-11.9-42.4,0c-32.4,32.4-64.7,64.7-97.1,97.1c-4.7-4.7-9.3-9.3-14-14L628,264.1   c-6.1-6.1-12.6-14.1-20.6-17.7c-15.2-6.8-31.2-3.5-43,8.1c-4.5,4.5-9,9-13.6,13.6c-9.6,9.6-19.2,19.2-28.8,28.8   c-92.5-35-198.3-27.9-286,18C147,361.4,80.6,447.4,58.1,545.2c-21.5,93.4-4,194.3,49.7,274c54.8,81.4,142.7,138.3,240.2,152   c47.8,6.7,96.3,4.3,143-8.3c47.5-12.8,91.5-36,129.8-66.9c9.1-7.4,17.8-15.3,26.1-23.5c39-39.2,68.4-87,85.5-139.5   c16.6-50.8,20.6-104.9,13.4-157.7c-3.4-25-9.7-49.6-18.6-73.2c6.3-6.3,12.7-12.7,19-19c6-6,12-12,18.1-18.1   c4.5-4.5,9.6-9,12.6-14.6c7.8-14.8,5.1-31.9-6.3-43.9c-1.8-1.9-3.6-3.6-5.4-5.4c-9-9-18-17.9-26.9-26.9l-22.9-22.9   c27.8-27.8,55.5-55.5,83.3-83.3c4.6-4.6,9.2-9.2,13.8-13.8C823.4,243.1,824.2,222.7,812.2,211.8z M449.2,406.9   c-4.8,4.8-14.1,9.6-21.2,8.8c-19.1-2.2-38.4-2.2-57.5,0c-18.3,2.9-36.2,7.7-53.3,14.6c-12.5,5.5-24.5,12-35.8,19.6   c-3.3,2.2-6.6,4.5-9.8,6.8c-1.9,1.6-2.8,2.3-3,2.5c0.2-0.2,0.7-0.6,1.2-1.1c-0.9,0.7-1.8,1.4-2.6,2.1c-6,4.9-11.6,10.1-17.1,15.6   c-11.9,11.8-30.4,11-42.4,0c-11.9-10.9-11.1-31.3,0-42.4c13.4-13.3,28.3-25.3,44.1-35.7c51.2-33.7,115.4-49,176.3-41.9   c8.4,1,15,3.1,21.2,8.8c5.9,5.4,8.4,13.5,8.8,21.2C458.3,393.1,454.4,401.7,449.2,406.9z"></path><path d="M913.5,152.9c9.5-9.5,19.1-19.1,28.6-28.6c11.1-11.1,11.9-31.5,0-42.4c-12-11-30.6-11.9-42.4,0   c-9.5,9.5-19.1,19.1-28.6,28.6c-11.1,11.1-11.9,31.5,0,42.4C883.1,163.9,901.7,164.8,913.5,152.9L913.5,152.9z"></path><path d="M901.7,256.5c14.4-0.4,28.8-0.7,43.1-1.1c15.7-0.4,30.7-13.5,30-30c-0.7-15.9-13.2-30.4-30-30   c-14.4,0.4-28.8,0.7-43.1,1.1c-15.7,0.4-30.7,13.5-30,30C872.4,242.4,884.9,256.9,901.7,256.5L901.7,256.5z"></path><path d="M827.6,122.3c0-14.4,0.1-28.8,0.1-43.1c0-15.7-13.8-30.7-30-30c-16.3,0.7-30,13.2-30,30   c0,14.4-0.1,28.8-0.1,43.1c0,15.7,13.8,30.7,30,30C813.8,151.6,827.5,139.1,827.6,122.3L827.6,122.3z"></path><path d="M915.3,313.1c-9.5-9.5-19.1-19.1-28.6-28.6c-11.1-11.1-31.5-11.9-42.4,0c-11,12-11.9,30.6,0,42.4   c9.5,9.5,19.1,19.1,28.6,28.6c11.1,11.1,31.5,11.9,42.4,0C926.3,343.5,927.1,324.9,915.3,313.1L915.3,313.1z"></path><path d="M739.6,137.4c-9.5-9.5-19.1-19.1-28.6-28.6c-11.1-11.1-31.5-11.9-42.4,0c-11,12-11.9,30.6,0,42.4   c9.5,9.5,19.1,19.1,28.6,28.6c11.1,11.1,31.5,11.9,42.4,0C750.6,167.8,751.4,149.2,739.6,137.4L739.6,137.4z"></path></g></svg>