<svg height='100px' width='100px'  fill="#ffffff" xmlns="http://www.w3.org/2000/svg" xmlns:xlink="http://www.w3.org/1999/xlink" version="1.1" x="0px" y="0px" viewBox="0 0 100 92.316" enable-background="new 0 0 100 92.316" xml:space="preserve"><path d="M81.655,30.105l-4.908,8.306l-3.101-1.835l13.636-23.071L81.069,1.597L61.75,16.658l-23.506,0.017l-4.817,7.439  L0.142,16.609v17.294c0,0,3.04,0.926,7.18,2.186v7.277l6.438-5.317c0.003,0,0.005,0.001,0.009,0.001l3.342,9.885l5.295-7.256  c0.033,0.009,0.067,0.021,0.1,0.03l3.092,5.92l5.04-2.882l7.61,11.42H24.289v5.481l-5.449,1.853l-6.949-6.082v8.446l-5.874,1.996  l5.22,7.831l25.944-3.426l24.604,21.048h38.131L100,42.715L81.655,30.105z M43.217,30.967c-1.804,0-3.265-1.461-3.265-3.264  c0-1.802,1.46-3.262,3.265-3.262c1.803,0,3.263,1.46,3.263,3.262C46.48,29.506,45.021,30.967,43.217,30.967z M71.476,30.017  l-1.69,1.9l-6.933-6.161l8.226-7.48l1.713,1.886l-6.131,5.572L71.476,30.017z"></path></svg>