<svg height='100px' width='100px'  fill="#ffffff" xmlns="http://www.w3.org/2000/svg" xmlns:xlink="http://www.w3.org/1999/xlink" version="1.1" x="0px" y="0px" viewBox="0 0 34 34" enable-background="new 0 0 34 34" xml:space="preserve"><g><path d="M2.5,31h29c1.156,0,1.875-1.253,1.298-2.253l-14.499-25c-0.579-0.995-2.017-0.995-2.596,0l-14.501,25   C0.625,29.744,1.343,31,2.5,31z M17.001,7.489L28.897,28H5.105L17.001,7.489z"></path><path d="M17,12.5c-0.828,0-1.5,0.672-1.5,1.5v7c0,0.828,0.672,1.5,1.5,1.5c0.828,0,1.5-0.672,1.5-1.5v-7   C18.5,13.172,17.828,12.5,17,12.5z"></path><path d="M15.939,23.937c-0.574,0.574-0.599,1.521,0,2.12c0.584,0.584,1.534,0.586,2.12,0c0.585-0.585,0.585-1.535,0-2.12   C17.498,23.378,16.498,23.378,15.939,23.937z"></path></g></svg>