<svg height='100px' width='100px'  fill="#ffffff" xmlns="http://www.w3.org/2000/svg" xmlns:xlink="http://www.w3.org/1999/xlink" version="1.1" x="0px" y="0px" viewBox="0 -32.708 185.375 170.292" enable-background="new 0 -32.708 185.375 170.292" xml:space="preserve"><path d="M75.001,78.86c0,11.088,9.021,20.108,20.111,20.108c11.09,0,20.11-9.021,20.11-20.108c0-11.089-9.021-20.111-20.11-20.111  C84.021,58.75,75.001,67.771,75.001,78.86z"></path><path d="M179.924,118.03L99.125-21.917c-0.893-1.547-2.543-2.5-4.33-2.5c-1.786,0-3.438,0.953-4.33,2.5L9.458,118.387  c-0.893,1.547-0.893,3.453,0,5s2.544,2.5,4.33,2.5h162.01c0.006,0,0.012,0,0.021,0c2.761,0,5-2.238,5-5  C180.819,119.825,180.488,118.841,179.924,118.03z M94.795-9.417l37.129,64.31c-10.047-8.758-23.094-13.831-37.128-13.832  c-14.035,0-27.085,5.073-37.132,13.833L94.795-9.417z M136.493,78.86c-7.379,16.458-23.52,26.973-41.698,26.973  c-18.181,0-34.322-10.518-41.701-26.976c7.38-16.457,23.52-26.972,41.701-26.972C112.974,51.886,129.114,62.403,136.493,78.86z   M42.395,81.339c7.508,18.534,23.812,31.378,43.053,34.548h-63L42.395,81.339z M104.142,115.887  c19.239-3.17,35.544-16.013,43.053-34.544l19.944,34.544H104.142z"></path></svg>