<svg height='100px' width='100px'  fill="#ffffff" xmlns="http://www.w3.org/2000/svg" xmlns:xlink="http://www.w3.org/1999/xlink" version="1.1" x="0px" y="0px" viewBox="0 0 100 100" enable-background="new 0 0 100 100" xml:space="preserve"><g><path d="M49.77,37.072c-11.767-14.416-5.197-22.196-1.271-26.844c1.475-1.748,2.543-3.011,2.273-4.319   c-0.135-0.66-0.586-1.185-1.34-1.562c-0.031-0.015-0.07-0.017-0.102-0.031c-0.043-0.016-0.084-0.029-0.128-0.039   c-2.398-0.962-6.527,0.947-10.415,4.882c-8.176,8.278-13.716,23.32-4.747,40.714c5.613,10.887,6.443,21.298,2.464,30.94   c-2.977,7.218-7.688,11.289-7.735,11.329c-0.435,0.371-0.487,1.024-0.116,1.458c0.204,0.241,0.495,0.365,0.788,0.365   c0.236,0,0.474-0.081,0.669-0.246c0.2-0.171,19.914-17.361,5.77-44.795c-8.462-16.41-3.286-30.55,4.38-38.311   c1.566-1.586,3.038-2.679,4.317-3.407C38.324,12.64,27.922,26.081,39.88,49.4c0.183,0.358,0.546,0.563,0.922,0.563   c0.159,0,0.32-0.036,0.471-0.114c0.508-0.261,0.709-0.884,0.449-1.393C28.087,21.867,44.475,9.322,48.59,6.702   c-0.305,0.563-1.065,1.471-1.672,2.19c-4.055,4.802-11.604,13.74,1.25,29.488c17.269,21.161,21.714,35.68,16.394,53.567   c-0.163,0.548,0.15,1.124,0.697,1.288c0.557,0.162,1.124-0.15,1.288-0.697C72.093,73.884,67.545,58.851,49.77,37.072z"></path><path d="M64.738,81.516c-0.539-2.031-1.661-2.508-2.283-2.611c-2.264-0.368-3.98,2.635-4.509,5.805   c-0.529,3.169,0.119,6.576,2.381,6.955c0.129,0.021,0.257,0.032,0.382,0.032c2.072,0,3.628-2.849,4.127-5.837   C65.099,84.286,65.065,82.744,64.738,81.516z M62.795,85.518c-0.476,2.85-1.804,4.119-2.127,4.105   c-0.361-0.061-1.154-1.727-0.68-4.573c0.465-2.784,1.711-4.106,2.103-4.106c0.009,0,0.017,0.001,0.025,0.002   c0.112,0.019,0.413,0.312,0.623,1.101C62.986,82.982,63.007,84.248,62.795,85.518z"></path><path d="M54.865,78.905c-2.274-0.368-3.98,2.635-4.509,5.805c-0.529,3.169,0.119,6.576,2.381,6.955   c0.129,0.021,0.257,0.032,0.382,0.032c2.072,0,3.628-2.849,4.127-5.837c0.263-1.574,0.228-3.116-0.098-4.344   C56.609,79.485,55.486,79.008,54.865,78.905z M55.204,85.518c-0.476,2.85-1.773,4.119-2.127,4.105   c-0.361-0.061-1.154-1.727-0.68-4.573c0.465-2.784,1.711-4.106,2.103-4.106c0.009,0,0.017,0.001,0.025,0.002   c0.112,0.019,0.413,0.312,0.623,1.101C55.395,82.982,55.417,84.248,55.204,85.518z"></path><path d="M59.374,70.75c0.358,2.691,1.674,4.543,3.181,4.543c0.081,0,0.163-0.005,0.246-0.016   c0.517-0.069,1.459-0.423,1.942-2.024c0.275-0.913,0.341-2.064,0.184-3.24c-0.156-1.176-0.519-2.27-1.023-3.079   c-0.883-1.419-1.88-1.52-2.403-1.448C59.894,65.698,58.998,67.912,59.374,70.75z M61.701,67.533   c0.251,0.087,0.944,1.004,1.175,2.751c0,0.001,0,0.001,0,0.001c0.232,1.748-0.198,2.813-0.275,2.943   c-0.25-0.087-0.943-1.003-1.175-2.75C61.194,68.729,61.625,67.663,61.701,67.533z"></path><path d="M54.979,65.783c-0.007,0-0.015,0-0.022,0c-1.612,0-2.804,2.058-2.839,4.906   c-0.034,2.861,1.118,4.952,2.74,4.972c0.008,0,0.015,0,0.022,0c0.529,0,1.493-0.23,2.191-1.725   c0.404-0.863,0.635-1.992,0.649-3.179C57.754,67.895,56.602,65.803,54.979,65.783z M54.955,73.605   c-0.234-0.122-0.788-1.129-0.767-2.892c0.021-1.764,0.6-2.756,0.695-2.874c0.234,0.122,0.788,1.129,0.767,2.893   C55.629,72.494,55.05,73.487,54.955,73.605z"></path><path d="M58.088,53.693c-1.102-1.085-2.034-0.952-2.491-0.777c-0.459,0.176-1.241,0.701-1.331,2.246   c-0.05,0.857,0.133,1.878,0.515,2.872c0.382,0.994,0.929,1.875,1.54,2.479c0.713,0.703,1.356,0.895,1.844,0.895   c0.266,0,0.486-0.057,0.647-0.118c0.459-0.176,1.241-0.701,1.331-2.246c0.05-0.857-0.133-1.878-0.515-2.872   S58.699,54.297,58.088,53.693z M58.032,59.257c-0.315-0.217-0.892-0.856-1.319-1.966c-0.446-1.159-0.423-1.988-0.337-2.344   c0.315,0.217,0.892,0.856,1.319,1.966C58.141,58.073,58.119,58.901,58.032,59.257z"></path><path d="M51.386,43.845c-0.503-0.225-1.016-0.244-1.483-0.066c-0.662,0.254-1.119,0.877-1.253,1.71   c-0.104,0.643-0.011,1.386,0.26,2.092c0.272,0.706,0.7,1.32,1.208,1.728c0.452,0.363,0.949,0.551,1.43,0.551   c0.22,0,0.438-0.039,0.645-0.119c0.662-0.254,1.119-0.877,1.253-1.71c0.104-0.643,0.011-1.386-0.26-2.092   C52.81,44.961,52.137,44.179,51.386,43.845z M50.843,46.84c-0.17-0.442-0.18-0.797-0.151-1.007   c0.163,0.135,0.393,0.407,0.562,0.848c0.17,0.441,0.18,0.797,0.151,1.007C51.242,47.551,51.011,47.28,50.843,46.84z"></path><path d="M45.275,45.844c-1.219,0.469-1.646,2.103-0.993,3.802c0.539,1.403,1.595,2.28,2.634,2.28   c0.219,0,0.438-0.038,0.65-0.12c1.219-0.469,1.646-2.103,0.993-3.802C47.907,46.306,46.494,45.376,45.275,45.844z M46.214,48.904   c-0.17-0.442-0.18-0.797-0.151-1.007c0.163,0.135,0.393,0.407,0.563,0.848c0.17,0.442,0.18,0.797,0.151,1.007   C46.614,49.617,46.384,49.345,46.214,48.904z"></path><path d="M41.308,42.919c0.371,0.298,0.783,0.452,1.186,0.452c0.192,0,0.381-0.034,0.563-0.104   c0.794-0.305,1.176-1.179,1.062-2.189c0.122,0.149,0.243,0.302,0.384,0.415c0.371,0.298,0.783,0.452,1.186,0.452   c0.192,0,0.381-0.034,0.563-0.104c1.012-0.389,1.386-1.696,0.869-3.039c-0.516-1.343-1.667-2.066-2.682-1.676   c-0.793,0.305-1.176,1.179-1.063,2.188c-0.122-0.149-0.243-0.302-0.384-0.415c-0.545-0.438-1.18-0.563-1.749-0.347   c-1.012,0.389-1.386,1.696-0.869,3.039C40.583,42.13,40.914,42.602,41.308,42.919z"></path><path d="M41.613,34.68c0.117,0,0.235-0.015,0.354-0.044c0.521-0.134,0.914-0.545,1.077-1.127   c0.111-0.393,0.109-0.855-0.005-1.301c-0.298-1.148-1.2-1.837-2.112-1.606c-0.495,0.128-0.859,0.517-1.036,1.052   c-0.383-0.301-0.845-0.428-1.309-0.313c-0.52,0.134-0.914,0.545-1.077,1.126c-0.111,0.393-0.109,0.855,0.005,1.299   c0.114,0.446,0.336,0.852,0.623,1.143c0.329,0.332,0.729,0.509,1.136,0.509c0.117,0,0.235-0.015,0.354-0.044   c0.517-0.134,0.865-0.546,1.034-1.076C40.949,34.53,41.273,34.68,41.613,34.68z"></path><path d="M49.739,54.162c-1.438,0.439-1.932,2.562-1.173,5.047c0.31,1.019,0.794,1.936,1.361,2.581   c0.723,0.822,1.404,1.029,1.907,1.029c0.208,0,0.386-0.035,0.523-0.078c1.438-0.439,1.932-2.561,1.173-5.047   c-0.31-1.019-0.794-1.936-1.361-2.581C51.147,53.951,50.208,54.016,49.739,54.162z M51.722,60.659   c-0.299-0.239-0.83-0.917-1.177-2.055c-0.347-1.137-0.284-1.996-0.17-2.361c0.299,0.239,0.83,0.917,1.177,2.055   C51.914,59.486,51.833,60.31,51.722,60.659z"></path><path d="M44.491,57.476c-0.505,0.266-0.699,0.892-0.434,1.398c0.094,0.179,9.284,18.089-0.991,34.633   c-0.301,0.485-0.153,1.124,0.334,1.425c0.17,0.105,0.359,0.156,0.545,0.156c0.346,0,0.684-0.174,0.88-0.489   c10.912-17.569,1.163-36.499,1.064-36.689C45.622,57.405,44.999,57.211,44.491,57.476z"></path><path d="M43.569,56.155c0.135,0,0.273-0.026,0.405-0.083c0.527-0.224,0.771-0.832,0.547-1.357l-1.478-3.468   c-0.223-0.527-0.833-0.77-1.357-0.547c-0.527,0.224-0.771,0.832-0.547,1.357l1.478,3.468   C42.785,55.919,43.167,56.155,43.569,56.155z"></path></g></svg>