<svg height='100px' width='100px'  fill="#ffffff" xmlns="http://www.w3.org/2000/svg" data-name="Layer 1" viewBox="0 0 100 100" x="0px" y="0px"><title>Artboard 15</title><path d="M5.62,51.91,48.16,98.19a2.5,2.5,0,0,0,3.68,0L94.38,51.91a2.5,2.5,0,0,0,.18-3.17l-16.83-23a2.5,2.5,0,0,0-2-1H24.29a2.5,2.5,0,0,0-2,1l-16.83,23A2.5,2.5,0,0,0,5.62,51.91Zm62.92.81h18.3L56.61,85.61ZM50,89.17,36.78,52.72H63.22Zm0-57.75,11.88,16.3H38.12ZM34,44.91,28.61,29.67H45.09ZM54.91,29.67H71.39L66,44.91Zm-23.46,23,11.93,32.9L13.16,52.72Zm56.16-5H70.32l5.63-16ZM24,31.76l5.63,16H12.39Z"></path><path d="M66,9.07l-4.51,4.51A2.5,2.5,0,1,0,65,17.12l4.51-4.51A2.5,2.5,0,0,0,66,9.07Z"></path><path d="M30.51,9.07a2.5,2.5,0,0,0,0,3.54L35,17.12a2.5,2.5,0,0,0,3.54-3.54L34,9.07A2.5,2.5,0,0,0,30.51,9.07Z"></path><path d="M47.5,3.5V9.88a2.5,2.5,0,1,0,5,0V3.5a2.5,2.5,0,0,0-5,0Z"></path></svg>