<svg height='100px' width='100px'  fill="#ffffff" xmlns="http://www.w3.org/2000/svg" data-name="Layer 1" viewBox="0 0 64 64" x="0px" y="0px"><title>Artboard 8</title><path d="M29,20.5a7.68,7.68,0,0,0-3.73-.2l-3.4.13a1.85,1.85,0,0,0-.91-1.49l-6.86-4.38a1,1,0,0,0-1.39.31L2.15,31.77a1,1,0,0,0,.33,1.38l6.73,4.1a2,2,0,0,0,1.05.3,2,2,0,0,0,.63-.12l1.53,1a3.47,3.47,0,0,0-.74,2,3.5,3.5,0,0,0,1,2.54,3.46,3.46,0,0,0,1.86,1,3.54,3.54,0,0,0,3.28,4.46h.13a3.46,3.46,0,0,0,1.52-.36,3.56,3.56,0,0,0,.84,1.56,3.47,3.47,0,0,0,4.66.39,3.58,3.58,0,0,0,.81,1.41,3.51,3.51,0,0,0,4.95.17l1.09-1,1.84,1.2a3.5,3.5,0,0,0,5.4-2.6,3.49,3.49,0,0,0,1.16.21,3.55,3.55,0,0,0,3.54-3.52,3.54,3.54,0,0,0,3.76-4.08A3.51,3.51,0,0,0,50,36.58l3.22-1.86a2,2,0,0,0,.44.12l.29,0a2,2,0,0,0,1.2-.4l6.45-4.83a1,1,0,0,0,.21-1.39l-12-16.43a1,1,0,0,0-1.41-.21l-6.67,5a2,2,0,0,0-.76,2l-6,.24A14,14,0,0,0,29,20.5ZM4.38,32l9.47-15.19,6,3.85-1.43,2.23L10.26,35.54h0Zm9.29,8.54a1.49,1.49,0,0,1,.48-1l.5-.47,0,0,1.85-1.72a1.49,1.49,0,0,1,1-.4h.05a1.52,1.52,0,0,1,1.08.51,1.5,1.5,0,0,1-.07,2.12L16.23,41.7a1.5,1.5,0,0,1-2.15-.11A1.49,1.49,0,0,1,13.68,40.51Zm4.18,6A1.52,1.52,0,0,1,16.78,46a1.5,1.5,0,0,1,.07-2.12l1.08-1,2-1.9h0l2.19-2a1.48,1.48,0,0,1,1-.4,1.56,1.56,0,0,1,1.14.51,1.5,1.5,0,0,1-.07,2.12l-1.87,1.75-2,1.83h0l-1.47,1.37A1.56,1.56,0,0,1,17.86,46.48Zm3.84,1.8a1.5,1.5,0,0,1,.07-2.12l3.1-2.89,1.92-1.79a1.49,1.49,0,0,1,1-.4h.05a1.52,1.52,0,0,1,1.08.51,1.5,1.5,0,0,1-.07,2.12h0L26.37,46l-.49.46h0l-2,1.88A1.51,1.51,0,0,1,21.7,48.28Zm5.47,1.81A1.5,1.5,0,0,1,27.24,48l.49-.46,1.07-1a1.49,1.49,0,0,1,1-.4h.05a1.52,1.52,0,0,1,1.08.51,1.5,1.5,0,0,1-.07,2.12L29.33,50.2A1.51,1.51,0,0,1,27.17,50.09Zm21.08-10.9a1.56,1.56,0,0,1-2,.53,3,3,0,0,0-.37-.27l-5.07-3.27h0a1.3,1.3,0,0,0-.32-.16,1,1,0,0,0-1,1.65A2.78,2.78,0,0,0,40,38L45,41.31l.06,0a1.52,1.52,0,0,1,.18,1.9,1.58,1.58,0,0,1-2.1.45l-.66-.42a3.3,3.3,0,0,0-.37-.29l0,0h0l-1.31-.85h0l-3-1.95a1,1,0,0,0-1.21.12.94.94,0,0,0-.11.09h0a.94.94,0,0,0-.07.12,1,1,0,0,0-.11.2,1,1,0,0,0,0,.19.44.44,0,0,0,0,.31,1,1,0,0,0,0,.2,1,1,0,0,0,.09.13,1,1,0,0,0,.12.18h0a2.78,2.78,0,0,0,.48.37l4.28,2.77a1.5,1.5,0,0,1,.19,1.89,1.57,1.57,0,0,1-2.11.46l-1.3-.85-.11,0a3.58,3.58,0,0,0-.51-.4l-2.26-1.45a1,1,0,1,0-1.08,1.68l2.26,1.45a1.53,1.53,0,0,1,.46,2.11,1.6,1.6,0,0,1-2.11.46l-1.66-1.07a3.54,3.54,0,0,0-.66-3.87,3.47,3.47,0,0,0-1.48-.93,3.47,3.47,0,0,0,.45-1.56,3.52,3.52,0,0,0-4.72-3.45,3.56,3.56,0,0,0-.88-1.68,3.5,3.5,0,0,0-4.84-.25,3.57,3.57,0,0,0-.8-1.39,3.5,3.5,0,0,0-4.95-.17L13.88,37l-1.53-1,7.3-11.35,1.41-2.19,4.34-.16.17,0,.37-.05-3.71,2.14a4,4,0,1,0,4.06,7l6.14-3.84a2.49,2.49,0,0,1,2.95.22l4.73,4c.65.55,1.27,1.05,1.91,1.52.83.62,1.68,1.21,2.52,1.74l3.19,2,.07,0,0,0,0,0A1.52,1.52,0,0,1,48.25,39.19Zm.57-25.38L59.61,28.61l-5.66,4.24h0L51.65,29.8,43,18.19Zm-6.61,6.74,5.37,7.17,4.15,5.55-3.26,1.88L45.61,33.3c-.8-.51-1.61-1.06-2.4-1.65-.6-.45-1.19-.92-1.81-1.44l-4.73-4a4.49,4.49,0,0,0-5.31-.39l-6.11,3.82a2,2,0,0,1-2-3.52l6.36-3.67a12,12,0,0,1,5.51-1.6Z"></path><circle cx="9.06" cy="30.89" r="2.01"></circle></svg>