<svg height='100px' width='100px'  fill="#ffffff" xmlns="http://www.w3.org/2000/svg" xmlns:xlink="http://www.w3.org/1999/xlink" version="1.1" x="0px" y="0px" viewBox="0 0 100 100" enable-background="new 0 0 100 100" xml:space="preserve"><g><path d="M85.118,9.452c-21.219-6.901-49.622-3.651-64.66,7.401c-6.06,4.456-8.986,9.974-8.24,15.539   c0.606,4.521,3.57,8.619,8.524,11.958c4.59,2.508,10.769,5.328,18.251,7.45c2.404,0.531,4.801,0.886,7.482,1.194   c6.034,0.694,30.974,0.598,34.713-7.409c1.445-3.095,1.238-6.239-0.587-8.855c-4.603-6.595-18.671-7.889-30.305-6.899   C39.944,30.71,32.87,34.7,28.419,39.494c-4.828-2.386-7.829-5.333-8.211-8.175c-0.454-3.387,2.954-6.447,5.025-7.97   c12.95-9.517,38.695-12.309,57.391-6.23c2.118,0.689,4.392-0.47,5.08-2.587C88.393,12.415,87.235,10.141,85.118,9.452z    M50.98,37.864c13.253-1.126,21.564,1.41,23.009,3.48c0.068,0.096,0.137,0.195,0.014,0.542c-2.739,2.093-17.631,4.136-26.602,3.099   c-3.972-0.459-7.116-0.993-10.732-2.17C39.948,40.343,44.624,38.404,50.98,37.864z"></path><g><path d="M54.178,87.101c-1.422,0.034-2.699-0.04-3.805-0.216c-6.387-1.017-8.918-5.743-9.9-8.849    c-3.551-1.373-6.456-2.813-8.837-4.212c0.066,1.887,0.358,3.836,0.891,5.772c2.311,8.383,8.354,13.94,16.581,15.251    c1.354,0.215,2.841,0.323,4.432,0.323c0.271,0,0.546-0.003,0.823-0.009c2.226-0.052,3.988-1.897,3.938-4.122    C58.251,88.813,56.385,87.049,54.178,87.101z"></path><path d="M68.124,57.826c-0.749-0.458-1.6-0.878-2.528-1.254c-5.121,0.775-9.781,1.053-13.771,1.053    c-3.673,0-6.774-0.228-9.172-0.498c-2.283,0.988-4.486,2.297-6.512,3.989c-0.489,0.408-0.941,0.874-1.356,1.39    c-3.068-3.069-4.578-6.585-4.436-9.271c0.023-0.448,0.096-0.922,0.193-1.408c-2.737-1.041-5.224-2.137-7.455-3.223    c-0.45,1.475-0.722,2.901-0.791,4.206c-0.316,6.015,3.079,12.84,9.452,17.787c-0.005,0.046-0.007,0.095-0.012,0.141    c2.855,1.806,6.643,3.735,11.665,5.518c1.369,0.36,2.793,0.653,4.276,0.86c16.183,2.257,24.038-4.92,25.189-9.978    C73.667,63.616,71.895,60.135,68.124,57.826z M48.793,69.132c-2.697-0.377-5.11-1.092-7.232-2.034    c5.398-4.331,13.144-5.063,18.499-3.847c2.9,0.658,4.435,1.719,4.864,2.253C64.208,66.715,59.798,70.675,48.793,69.132z"></path></g></g></svg>