<svg height='100px' width='100px'  fill="#ffffff" xmlns="http://www.w3.org/2000/svg" xmlns:xlink="http://www.w3.org/1999/xlink" viewBox="0 0 54 60" version="1.1" x="0px" y="0px"><title>001 - Dice</title><desc>Created with Sketch.</desc><g stroke="none" stroke-width="1" fill="none" fill-rule="evenodd"><g fill="#ffffff" fill-rule="nonzero"><path d="M3.006,47.2 L23.983,59.208 C24.8987319,59.7240641 25.9318647,59.995778 26.983,59.997 L27,60 L27.015,60 C28.0682999,59.9988378 29.1035489,59.726422 30.021,59.209 L51,47.193 C52.8488865,46.1293662 53.9918259,44.1619865 54,42.029 L54,17.97 C53.9967293,16.874241 53.6889396,15.8009588 53.111,14.87 L53.105,14.854 C53.105,14.844 53.089,14.839 53.083,14.829 C52.5629011,13.9920632 51.845215,13.2956672 50.993,12.801 L30.017,0.792 C28.1428489,-0.264003111 25.8531511,-0.264003111 23.979,0.792 L3,12.806 C2.14832304,13.3011109 1.43131308,13.9978606 0.912,14.835 C0.906,14.844 0.897,14.849 0.892,14.858 L0.892,14.873 C0.313346412,15.802695 0.00451715376,16.8749419 0,17.97 L0,42.029 C0.00815064829,44.1653944 1.15354623,46.1357339 3.006,47.2 Z M4.006,45.466 C2.77574454,44.7597748 2.01394522,43.4525272 2.006,42.034 L2.006,17.97 C2.00896888,17.561956 2.0764698,17.1569504 2.206,16.77 L26,30.576 L26,57.876 C25.641026,57.7882753 25.2958005,57.6516656 24.974,57.47 L4.006,45.466 Z M52.006,42.034 C51.9981628,43.4520349 51.2362383,44.7587354 50.006,45.464 L29.03,57.468 C28.7069616,57.6502716 28.3603774,57.7872228 28,57.875 L28,30.575 L51.8,16.775 C51.9295302,17.1619504 51.9970311,17.566956 52,17.975 L52.006,42.034 Z M24.97,2.533 C26.2291471,1.82437565 27.7668529,1.82437565 29.026,2.533 L50,14.539 C50.2624606,14.6921422 50.5064025,14.8750148 50.727,15.084 L27,28.844 L3.277,15.083 C3.49670209,14.8752552 3.73925134,14.6930916 4,14.54 L24.97,2.533 Z"></path><path d="M34.419,45.118 C32.5852313,45.6239752 31.2381528,47.1866811 31.008,49.075 C30.9211611,49.9491982 31.2633103,50.8112801 31.926,51.388 C32.427074,51.7940722 33.0551323,52.0107417 33.7,52 C33.9978748,51.9990096 34.2944752,51.9610528 34.583,51.887 C36.4108291,51.3691234 37.7504532,49.8064913 37.983,47.921 C38.0699708,47.0451696 37.7257145,46.1817316 37.06,45.606 C36.310581,45.0253746 35.3264234,44.8435234 34.419,45.118 L34.419,45.118 Z M36,47.782 C35.8289674,48.809053 35.0884274,49.6492885 34.091,49.948 C33.7980923,50.0534627 33.4727762,50.0164949 33.211,49.848 C33.0476497,49.6778396 32.9736041,49.4408936 33.011,49.208 C33.17962,48.1797057 33.9249157,47.3402264 34.926,47.051 C35.0520053,47.0178116 35.181699,47.0006759 35.312,47 C35.5183592,46.9752056 35.7236441,47.0539517 35.8604816,47.2103946 C35.9973191,47.3668375 36.0480407,47.5807771 35.996,47.782 L36,47.782 Z"></path><path d="M7.587,37.119 C6.675442,36.8396908 5.68501322,37.0205485 4.931,37.604 C4.26514403,38.1796309 3.92085727,39.0431454 4.008,39.919 C4.24184796,41.8078174 5.58656084,43.3717212 7.419,43.886 C7.70671479,43.9608425 8.00271148,43.999144 8.3,44 C8.94642518,44.0120333 9.5763805,43.7956743 10.079,43.389 C10.7412685,42.8119819 11.0833278,41.9501264 10.997,41.076 C10.7680364,39.1874919 9.42098463,37.6243588 7.587,37.119 Z M8.792,41.852 C8.53227441,42.0179294 8.21054603,42.0548248 7.92,41.952 C6.91754733,41.6555684 6.17213169,40.8130935 6,39.782 C5.96246428,39.5500067 6.0365941,39.3139033 6.2,39.145 C6.46303829,38.978663 6.78898346,38.9456981 7.08,39.056 C8.08274451,39.3434376 8.83021285,40.1827822 9,41.212 C9.03451429,41.4461179 8.95755824,41.6829057 8.792,41.852 Z"></path><path d="M20.587,45.119 C19.6753918,44.8405535 18.6853651,45.0213377 17.931,45.604 C17.265144,46.1796309 16.9208573,47.0431454 17.008,47.919 C17.241848,49.8078174 18.5865608,51.3717212 20.419,51.886 C20.7067148,51.9608425 21.0027115,51.999144 21.3,52 C21.9464252,52.0120333 22.5763805,51.7956743 23.079,51.389 C23.7412685,50.8119819 24.0833278,49.9501264 23.997,49.076 C23.7680364,47.1874919 22.4209846,45.6243588 20.587,45.119 Z M21.792,49.852 C21.5322744,50.0179294 21.210546,50.0548248 20.92,49.952 C19.9175473,49.6555684 19.1721317,48.8130935 19,47.782 C18.9624643,47.5500067 19.0365941,47.3139033 19.2,47.145 C19.4631954,46.9791187 19.7889208,46.946176 20.08,47.056 C21.0827445,47.3434376 21.8302129,48.1827822 22,49.212 C22.0345143,49.4461179 21.9575582,49.6829057 21.792,49.852 L21.792,49.852 Z"></path><path d="M7.587,23.12 C6.67554191,22.8414456 5.68561096,23.0218396 4.931,23.604 C4.2642929,24.1790246 3.91982247,25.0429998 4.008,25.919 L4.008,25.919 C4.24210396,27.8077041 5.58671124,29.3714851 7.419,29.886 C7.70672692,29.9607799 8.00271567,29.9990804 8.3,30 C8.94642518,30.0120333 9.5763805,29.7956743 10.079,29.389 C10.7412685,28.8119819 11.0833278,27.9501264 10.997,27.076 C10.7679168,25.1877576 9.42083044,23.6249795 7.587,23.12 Z M8.793,27.852 C8.53301751,28.0182485 8.21084176,28.0551529 7.92,27.952 C6.91808139,27.6547301 6.17302885,26.8126655 6,25.782 C5.9624579,25.5497029 6.03656684,25.3132954 6.2,25.144 C6.46387842,24.9798335 6.78908396,24.9476825 7.08,25.057 C8.08245683,25.3442826 8.8298594,26.1831642 9,27.212 C9.03445805,27.4459307 8.95792424,27.682557 8.793,27.852 L8.793,27.852 Z"></path><path d="M20.587,31.119 C19.6754521,30.8395179 18.6849426,31.0203903 17.931,31.604 C17.265144,32.1796309 16.9208573,33.0431454 17.008,33.919 C17.241848,35.8078174 18.5865608,37.3717212 20.419,37.886 C20.7067148,37.9608425 21.0027115,37.999144 21.3,38 C21.9464252,38.0120333 22.5763805,37.7956743 23.079,37.389 C23.7412685,36.8119819 24.0833278,35.9501264 23.997,35.076 C23.7680364,33.1874919 22.4209846,31.6243588 20.587,31.119 Z M21.792,35.852 C21.5322744,36.0179294 21.210546,36.0548248 20.92,35.952 C19.9175473,35.6555684 19.1721317,34.8130935 19,33.782 C18.9624643,33.5500067 19.0365941,33.3139033 19.2,33.145 C19.4631954,32.9791187 19.7889208,32.946176 20.08,33.056 C21.0827445,33.3434376 21.8302129,34.1827822 22,35.212 C22.0345143,35.4461179 21.9575582,35.6829057 21.792,35.852 Z"></path><path d="M46.419,23.118 C44.5861403,23.6254107 43.2397066,25.1873686 43.008,27.075 C42.9211611,27.9491982 43.2633103,28.8112801 43.926,29.388 C44.4270318,29.7941481 45.0551187,30.0108274 45.7,30 C45.9983169,29.9987938 46.2953036,29.9601586 46.584,29.885 C48.4116751,29.3675001 49.7513321,27.8052236 49.984,25.92 C50.0711427,25.0441454 49.726856,24.1806309 49.061,23.605 C48.3108864,23.0250164 47.3266052,22.8435838 46.419,23.118 L46.419,23.118 Z M48,25.782 C47.8289674,26.809053 47.0884274,27.6492885 46.091,27.948 C45.7979132,28.0519129 45.4732984,28.0150248 45.211,27.848 C45.0476497,27.6778396 44.9736041,27.4408936 45.011,27.208 C45.1797829,26.1794449 45.9255261,25.3399 46.927,25.051 C47.0530053,25.0178116 47.182699,25.0006759 47.313,25 C47.5193241,24.9750676 47.7246208,25.0538237 47.8613328,25.2103519 C47.9980448,25.3668801 48.0484644,25.5809062 47.996,25.782 L48,25.782 Z"></path><path d="M40.419,34.118 C38.5852313,34.6239752 37.2381528,36.1866811 37.008,38.075 C36.9211611,38.9491982 37.2633103,39.8112801 37.926,40.388 C38.427074,40.7940722 39.0551323,41.0107417 39.7,41 C39.9978748,40.9990096 40.2944752,40.9610528 40.583,40.887 C42.4108291,40.3691234 43.7504532,38.8064913 43.983,36.921 C44.0699708,36.0451696 43.7257145,35.1817316 43.06,34.606 C42.3103705,34.0258449 41.326452,33.8440379 40.419,34.118 Z M42,36.782 C41.8289674,37.809053 41.0884274,38.6492885 40.091,38.948 C39.7980923,39.0534627 39.4727762,39.0164949 39.211,38.848 C39.0476497,38.6778396 38.9736041,38.4408936 39.011,38.208 C39.17962,37.1797057 39.9249157,36.3402264 40.926,36.051 C41.0520053,36.0178116 41.181699,36.0006759 41.312,36 C41.5183592,35.9752056 41.7236441,36.0539517 41.8604816,36.2103946 C41.9973191,36.3668375 42.0480407,36.5807771 41.996,36.782 L42,36.782 Z"></path><path d="M24.534,18.254 C25.2635913,18.7474012 26.1252476,19.008826 27.006,19.004 C28.1346336,19.0180242 29.2222764,18.5814555 30.028,17.791 C30.7202444,17.1166899 31.0720972,16.1665402 30.986,15.204 C30.8720956,14.1986448 30.3178703,13.2956934 29.473,12.739 C27.7548774,11.5901477 25.4697428,11.7866693 23.973,13.212 C23.2790373,13.8799606 22.9255791,14.8266841 23.012,15.786 C23.1262072,16.7943685 23.6842379,17.6992436 24.534,18.254 L24.534,18.254 Z M25.4,14.62 C25.8347559,14.2098123 26.4134212,13.9871106 27.011,14 C27.4839617,13.9942278 27.9478404,14.1300481 28.343,14.39 C28.6986804,14.6093261 28.9377957,14.9760674 28.995,15.39 C29.0226771,15.7632707 28.8787439,16.1288094 28.604,16.383 L28.604,16.383 C27.7864156,17.1134718 26.579564,17.2021385 25.664,16.599 C25.3045384,16.3796853 25.0628828,16.010224 25.006,15.593 C24.9809827,15.225377 25.1262469,14.8666409 25.4,14.62 L25.4,14.62 Z"></path></g></g></svg>